<svg xmlns="http://www.w3.org/2000/svg" viewBox="0 0 512 512">
  <!-- Blue rounded rectangle background -->
  <rect width="512" height="512" rx="80" fill="#1b365d"/>
  
  <!-- Green heart icon in center -->
  <path d="M256 448c-18.5 0-33.8-15.1-33.8-33.8 0-31.9 27.1-58.6 59.8-89.5 6.2-5.9 11.8-11.2 16.8-16 5-4.8 10.6-10.1 16.8-16 32.7-30.9 59.8-57.6 59.8-89.5 0-18.7-15.3-33.8-33.8-33.8-18.5 0-33.8 15.1-33.8 33.8 0 8.3-6.7 15-15 15s-15-6.7-15-15c0-35.2 28.6-63.8 63.8-63.8s63.8 28.6 63.8 63.8c0 45.2-34.2 78.5-71.2 113.2-3.8 3.6-7.5 7.1-11.1 10.5-3.6-3.4-7.3-6.9-11.1-10.5-37-34.7-71.2-68-71.2-113.2 0-35.2 28.6-63.8 63.8-63.8s63.8 28.6 63.8 63.8c0 8.3-6.7 15-15 15s-15-6.7-15-15c0-18.7-15.3-33.8-33.8-33.8z" fill="#84ae56"/>
  
  <!-- Simplified heart shape for better visibility at small sizes -->
  <path d="M256 160c-17.7 0-32 14.3-32 32 0 32 32 48 64 80 32-32 64-48 64-80 0-17.7-14.3-32-32-32-8.8 0-16.8 3.6-22.6 9.4-5.8-5.8-13.8-9.4-22.6-9.4z" fill="#84ae56" opacity="0.8"/>
  
  <!-- Main simplified heart -->
  <path d="M256 380l-80-80c-22.1-22.1-22.1-58 0-80.1 22.1-22.1 58-22.1 80.1 0L256 220l80-80c22.1-22.1 58-22.1 80 0 22.1 22.1 22.1 58 0 80L256 380z" fill="#84ae56"/>
</svg>